<svg width="740" height="160" viewBox="0 0 740 160" fill="none" xmlns="http://www.w3.org/2000/svg" role="img" aria-labelledby="title">
  <title id="title">GlideDesign logo for dark surfaces</title>
  <defs>
    <linearGradient id="glide-gradient" x1="24" y1="18" x2="112" y2="122" gradientUnits="userSpaceOnUse">
      <stop stop-color="#8D77FF"/>
      <stop offset="1" stop-color="#FF856F"/>
    </linearGradient>
    <filter id="glow" x="-20" y="-20" width="190" height="190" color-interpolation-filters="sRGB">
      <feGaussianBlur stdDeviation="12" result="blur"/>
      <feColorMatrix in="blur" type="matrix" values="0 0 0 0 0.45 0 0 0 0 0.32 0 0 0 0 1 0 0 0 0.42 0"/>
      <feBlend in="SourceGraphic"/>
    </filter>
  </defs>
  <rect width="740" height="160" rx="32" fill="#151120"/>
  <g filter="url(#glow)">
    <path d="M49.5 34.5C47.1 32.7 44 34.6 44 37.5V109.8C44 113 47.8 114.6 50.2 112.5L69.6 95.3L81.8 123.3C82.6 125 84.7 125.8 86.4 125L102.9 117.8C104.7 117 105.5 114.9 104.7 113.2L92.6 85.4H119.8C122.9 85.4 124.3 81.6 121.9 79.7L49.5 34.5Z" fill="url(#glide-gradient)"/>
    <circle cx="38" cy="121" r="8.5" fill="url(#glide-gradient)" opacity="0.82"/>
  </g>
  <text x="184" y="101" fill="#FFFFFF" font-family="Inter, General Sans, Arial, sans-serif" font-size="72" font-weight="800" letter-spacing="-3.8">GlideDesign</text>
</svg>
