<svg width="1600" height="1150" viewBox="0 0 1600 1150" fill="none" xmlns="http://www.w3.org/2000/svg">
  <rect width="1600" height="1150" rx="64" fill="#F7F5FF"/>
  <circle cx="1284" cy="104" r="258" fill="#FF6E57" opacity=".24"/>
  <circle cx="202" cy="1004" r="268" fill="#6651FF" opacity=".22"/>
  <g filter="url(#shellShadow)">
    <rect x="86" y="98" width="1428" height="900" rx="46" fill="#FFFFFF"/>
    <rect x="86" y="98" width="1428" height="78" rx="46" fill="#151120"/>
    <rect x="86" y="142" width="1428" height="34" fill="#151120"/>
    <circle cx="140" cy="137" r="11" fill="#FF6E57"/>
    <circle cx="174" cy="137" r="11" fill="#F1C400"/>
    <circle cx="208" cy="137" r="11" fill="#27D07D"/>
    <rect x="304" y="124" width="272" height="28" rx="14" fill="white" opacity=".13"/>
    <rect x="1196" y="120" width="116" height="36" rx="18" fill="#6651FF"/>
    <rect x="1328" y="120" width="120" height="36" rx="18" fill="white" opacity=".14"/>
    <rect x="118" y="210" width="306" height="732" rx="34" fill="#F9F8FF"/>
    <rect x="462" y="210" width="652" height="732" rx="34" fill="#F0F1F6"/>
    <rect x="1152" y="210" width="330" height="732" rx="34" fill="#F9F8FF"/>
    <rect x="154" y="252" width="94" height="16" rx="8" fill="#6651FF"/>
    <text x="154" y="324" fill="#151120" font-family="Inter, Arial, sans-serif" font-size="40" font-weight="900" letter-spacing="-1.8">Strategy</text>
    <rect x="154" y="366" width="224" height="74" rx="20" fill="white"/>
    <rect x="184" y="393" width="132" height="16" rx="8" fill="#151120" opacity=".52"/>
    <rect x="154" y="468" width="224" height="114" rx="24" fill="#FFFFFF"/>
    <path d="M190 526h146" stroke="#151120" stroke-width="12" stroke-linecap="round" stroke-dasharray="1 28"/>
    <rect x="154" y="614" width="224" height="82" rx="22" fill="#EAFDE9"/>
    <rect x="184" y="646" width="78" height="14" rx="7" fill="#151120" opacity=".48"/>
    <rect x="154" y="812" width="224" height="82" rx="28" fill="#151120"/>
    <rect x="185" y="844" width="142" height="18" rx="9" fill="white" opacity=".58"/>
    <rect x="510" y="252" width="226" height="38" rx="19" fill="#FFFFFF"/>
    <rect x="510" y="326" width="250" height="360" rx="40" fill="#FFFFFF"/>
    <rect x="548" y="370" width="164" height="20" rx="10" fill="#151120"/>
    <rect x="548" y="428" width="152" height="180" rx="30" fill="#DFFF57"/>
    <rect x="783" y="326" width="250" height="360" rx="40" fill="#FFFFFF"/>
    <rect x="821" y="370" width="164" height="20" rx="10" fill="#151120"/>
    <rect x="821" y="428" width="152" height="180" rx="30" fill="#D8C5FF"/>
    <path d="M760 504c36-28 56-28 92 0" stroke="#6651FF" stroke-width="12" stroke-linecap="round" stroke-dasharray="1 22"/>
    <rect x="592" y="724" width="360" height="102" rx="32" fill="#151120"/>
    <rect x="632" y="764" width="92" height="22" rx="11" fill="#DFFF57"/>
    <rect x="742" y="764" width="158" height="22" rx="11" fill="white" opacity=".16"/>
    <text x="1190" y="324" fill="#151120" font-family="Inter, Arial, sans-serif" font-size="40" font-weight="900" letter-spacing="-1.8">System</text>
    <rect x="1190" y="366" width="242" height="70" rx="20" fill="#EAFDE9"/>
    <rect x="1222" y="391" width="128" height="16" rx="8" fill="#151120" opacity=".52"/>
    <rect x="1190" y="466" width="242" height="70" rx="20" fill="#FFFFFF"/>
    <rect x="1222" y="491" width="96" height="16" rx="8" fill="#6651FF"/>
    <rect x="1190" y="566" width="242" height="196" rx="28" fill="#151120"/>
    <path d="M1232 704c28-98 78-128 160-98" stroke="#7DEBCB" stroke-width="14" stroke-linecap="round"/>
    <circle cx="1232" cy="704" r="12" fill="#7DEBCB"/>
    <circle cx="1392" cy="606" r="12" fill="#7DEBCB"/>
  </g>
  <path d="M1054 826 1004 690l138 55-56 24 56 56-30 30-58-29Z" fill="#FFFFFF" stroke="#151120" stroke-width="14" stroke-linejoin="round"/>
  <rect x="1018" y="762" width="108" height="42" rx="21" fill="#6651FF"/>
  <text x="1040" y="790" fill="white" font-family="Inter, Arial, sans-serif" font-size="19" font-weight="800">Robin</text>
  <text x="122" y="1080" fill="#151120" font-family="Inter, Arial, sans-serif" font-size="76" font-weight="950" letter-spacing="-4">strategy, canvas, system, action</text>
  <defs>
    <filter id="shellShadow" x="48" y="70" width="1504" height="976" filterUnits="userSpaceOnUse" color-interpolation-filters="sRGB">
      <feDropShadow dx="0" dy="30" stdDeviation="22" flood-color="#151120" flood-opacity=".18"/>
    </filter>
  </defs>
</svg>
