<svg width="1200" height="900" viewBox="0 0 1200 900" fill="none" xmlns="http://www.w3.org/2000/svg">
  <rect width="1200" height="900" rx="44" fill="#18B6E8"/>
  <circle cx="171" cy="160" r="118" fill="#DFFF57"/>
  <circle cx="1040" cy="714" r="162" fill="#FF6E57" opacity=".85"/>
  <path d="M148 198c0-59 48-107 107-107h245c59 0 107 48 107 107v592c0 59-48 107-107 107H255c-59 0-107-48-107-107V198Z" fill="#151120"/>
  <rect x="179" y="136" width="397" height="706" rx="76" fill="white"/>
  <rect x="226" y="184" width="303" height="54" rx="24" fill="#151120"/>
  <rect x="226" y="272" width="303" height="138" rx="36" fill="#6651FF"/>
  <circle cx="284" cy="341" r="38" fill="#FF6E57"/>
  <rect x="346" y="316" width="126" height="18" rx="9" fill="white" opacity=".72"/>
  <rect x="346" y="351" width="92" height="18" rx="9" fill="white" opacity=".42"/>
  <rect x="226" y="446" width="140" height="152" rx="32" fill="#DFFF57"/>
  <rect x="389" y="446" width="140" height="152" rx="32" fill="#E7DEFF"/>
  <rect x="226" y="632" width="303" height="44" rx="22" fill="#151120"/>
  <rect x="226" y="703" width="303" height="68" rx="28" fill="#F4F1FF"/>
  <path d="M608 472C660 426 707 426 760 472" stroke="white" stroke-width="16" stroke-linecap="round" stroke-dasharray="2 32"/>
  <path d="M743 198c0-48 39-87 87-87h166c48 0 87 39 87 87v412c0 48-39 87-87 87H830c-48 0-87-39-87-87V198Z" fill="#151120"/>
  <rect x="768" y="150" width="290" height="508" rx="64" fill="#F6F4FF"/>
  <rect x="806" y="195" width="214" height="80" rx="30" fill="#FF6E57"/>
  <rect x="806" y="306" width="214" height="26" rx="13" fill="#151120"/>
  <rect x="806" y="358" width="154" height="18" rx="9" fill="#151120" opacity=".22"/>
  <rect x="806" y="407" width="96" height="96" rx="28" fill="#7DEBCB"/>
  <rect x="924" y="407" width="96" height="96" rx="28" fill="#DFFF57"/>
  <rect x="806" y="535" width="214" height="50" rx="25" fill="#151120"/>
  <path d="M658 605c-53 41-96 40-143-3" stroke="white" stroke-width="16" stroke-linecap="round" stroke-dasharray="2 32"/>
  <g filter="url(#shadow)">
    <rect x="526" y="236" width="300" height="536" rx="74" fill="#151120"/>
    <rect x="551" y="275" width="250" height="458" rx="54" fill="#FFFFFF"/>
    <rect x="581" y="317" width="190" height="44" rx="22" fill="#151120"/>
    <rect x="581" y="397" width="190" height="170" rx="36" fill="#E7DEFF"/>
    <circle cx="676" cy="482" r="58" fill="#6651FF"/>
    <path d="m650 481 25-25 25 25-25 25-25-25Z" fill="#DFFF57"/>
    <rect x="581" y="600" width="86" height="86" rx="26" fill="#FFDED6"/>
    <rect x="685" y="600" width="86" height="86" rx="26" fill="#D7FFEF"/>
  </g>
  <text x="74" y="846" fill="#151120" font-family="Inter, Arial, sans-serif" font-size="62" font-weight="900" letter-spacing="-3">mobile flows</text>
  <defs>
    <filter id="shadow" x="486" y="198" width="380" height="616" filterUnits="userSpaceOnUse" color-interpolation-filters="sRGB">
      <feDropShadow dx="0" dy="28" stdDeviation="20" flood-color="#151120" flood-opacity=".34"/>
    </filter>
  </defs>
</svg>
