<svg width="1200" height="900" viewBox="0 0 1200 900" fill="none" xmlns="http://www.w3.org/2000/svg">
  <rect width="1200" height="900" rx="44" fill="#FF735D"/>
  <rect x="70" y="92" width="342" height="250" rx="32" fill="#151120"/>
  <rect x="108" y="138" width="164" height="20" rx="10" fill="#DFFF57"/>
  <text x="108" y="244" fill="white" font-family="Inter, Arial, sans-serif" font-size="54" font-weight="900" letter-spacing="-2.5">Series A</text>
  <rect x="108" y="278" width="230" height="18" rx="9" fill="white" opacity=".22"/>
  <g filter="url(#shadowA)">
    <rect x="270" y="178" width="610" height="420" rx="44" fill="#F9F7FF"/>
    <rect x="318" y="232" width="210" height="26" rx="13" fill="#151120"/>
    <rect x="318" y="292" width="332" height="20" rx="10" fill="#151120" opacity=".18"/>
    <rect x="318" y="331" width="276" height="20" rx="10" fill="#151120" opacity=".18"/>
    <rect x="322" y="422" width="78" height="106" rx="24" fill="#6651FF"/>
    <rect x="424" y="372" width="78" height="156" rx="24" fill="#FF6E57"/>
    <rect x="526" y="312" width="78" height="216" rx="24" fill="#27D07D"/>
    <rect x="628" y="456" width="78" height="72" rx="24" fill="#C49A00"/>
    <path d="M742 490c12-107 59-181 121-226" stroke="#151120" stroke-width="15" stroke-linecap="round"/>
    <path d="m853 259 38-7-6 39" stroke="#151120" stroke-width="15" stroke-linecap="round" stroke-linejoin="round"/>
  </g>
  <g filter="url(#shadowB)" opacity=".96">
    <rect x="690" y="316" width="388" height="266" rx="36" fill="#151120"/>
    <rect x="730" y="362" width="104" height="18" rx="9" fill="#7DEBCB"/>
    <circle cx="798" cy="470" r="62" fill="#6651FF"/>
    <circle cx="890" cy="470" r="62" fill="#DFFF57"/>
    <circle cx="982" cy="470" r="62" fill="#FF6E57"/>
    <rect x="730" y="538" width="250" height="14" rx="7" fill="white" opacity=".26"/>
  </g>
  <path d="M98 582h188v188H98z" fill="#DFFF57"/>
  <path d="M120 604h144v144H120z" stroke="#151120" stroke-width="18"/>
  <circle cx="1010" cy="178" r="94" fill="#E7DEFF"/>
  <path d="M1010 84c52 0 94 42 94 94h-188c0-52 42-94 94-94Z" fill="#151120"/>
  <text x="74" y="846" fill="#151120" font-family="Inter, Arial, sans-serif" font-size="62" font-weight="900" letter-spacing="-3">pitch decks</text>
  <defs>
    <filter id="shadowA" x="228" y="138" width="694" height="508" filterUnits="userSpaceOnUse" color-interpolation-filters="sRGB">
      <feDropShadow dx="0" dy="28" stdDeviation="20" flood-color="#151120" flood-opacity=".28"/>
    </filter>
    <filter id="shadowB" x="652" y="282" width="464" height="342" filterUnits="userSpaceOnUse" color-interpolation-filters="sRGB">
      <feDropShadow dx="0" dy="24" stdDeviation="18" flood-color="#151120" flood-opacity=".28"/>
    </filter>
  </defs>
</svg>
