<svg width="1200" height="900" viewBox="0 0 1200 900" fill="none" xmlns="http://www.w3.org/2000/svg">
  <rect width="1200" height="900" rx="44" fill="#F1C400"/>
  <circle cx="1002" cy="188" r="134" fill="#FFBFAF"/>
  <path d="M112 128c0-42 34-76 76-76h506c42 0 76 34 76 76v640c0 42-34 76-76 76H188c-42 0-76-34-76-76V128Z" fill="#151120"/>
  <rect x="152" y="92" width="578" height="710" rx="48" fill="#FFFFFF"/>
  <rect x="204" y="148" width="174" height="22" rx="11" fill="#6651FF"/>
  <text x="204" y="256" fill="#151120" font-family="Inter, Arial, sans-serif" font-size="58" font-weight="900" letter-spacing="-3">Proposal</text>
  <rect x="204" y="302" width="392" height="16" rx="8" fill="#151120" opacity=".18"/>
  <rect x="204" y="332" width="314" height="16" rx="8" fill="#151120" opacity=".18"/>
  <rect x="204" y="396" width="472" height="112" rx="28" fill="#F7F4E5"/>
  <rect x="240" y="433" width="206" height="18" rx="9" fill="#151120"/>
  <rect x="240" y="470" width="342" height="14" rx="7" fill="#151120" opacity=".2"/>
  <rect x="204" y="548" width="472" height="112" rx="28" fill="#F5F2FF"/>
  <rect x="240" y="585" width="178" height="18" rx="9" fill="#151120"/>
  <rect x="240" y="622" width="300" height="14" rx="7" fill="#151120" opacity=".2"/>
  <rect x="204" y="704" width="190" height="44" rx="22" fill="#151120"/>
  <g filter="url(#shadow)">
    <rect x="642" y="300" width="400" height="338" rx="38" fill="#151120"/>
    <rect x="690" y="354" width="128" height="20" rx="10" fill="#DFFF57"/>
    <rect x="690" y="420" width="266" height="16" rx="8" fill="white" opacity=".24"/>
    <rect x="690" y="457" width="228" height="16" rx="8" fill="white" opacity=".24"/>
    <rect x="690" y="528" width="264" height="62" rx="24" fill="#FF6E57"/>
    <path d="M724 558c42-33 96-18 140-10 34 6 66 3 86-22" stroke="#151120" stroke-width="10" stroke-linecap="round"/>
  </g>
  <path d="M858 142h124v124H858z" fill="#D8C5FF"/>
  <path d="M858 204h124" stroke="#151120" stroke-width="14"/>
  <path d="M920 142v124" stroke="#151120" stroke-width="14"/>
  <path d="M1050 662c-46 0-84 37-84 84h168c0-47-38-84-84-84Z" fill="#27D07D"/>
  <text x="74" y="846" fill="#151120" font-family="Inter, Arial, sans-serif" font-size="62" font-weight="900" letter-spacing="-3">proposal to signature</text>
  <defs>
    <filter id="shadow" x="598" y="260" width="488" height="426" filterUnits="userSpaceOnUse" color-interpolation-filters="sRGB">
      <feDropShadow dx="0" dy="28" stdDeviation="20" flood-color="#151120" flood-opacity=".3"/>
    </filter>
  </defs>
</svg>
